[h264 @ 0x561abe229b40] Reinit context to 1280x720, pix_fmt: yuv420p
Input #0, mov,mp4,m4a,3gp,3g2,mj2, from '/var/www/html/project/media/video/original/1000122258.mp4':
  Metadata:
    major_brand     : mp42
    minor_version   : 0
    compatible_brands: mp42mp41
    creation_time   : 2025-11-06T19:44:10.000000Z
  Duration: 00:01:57.93, start: 0.000000, bitrate: 2177 kb/s
    Stream #0:0(eng): Video: h264 (Main), 1 reference frame (avc1 / 0x31637661), yuv420p(tv, bt709, left), 1280x720, 2045 kb/s, 30 fps, 30 tbr, 30k tbn, 60 tbc (default)
    Metadata:
      creation_time   : 2025-11-06T19:44:11.000000Z
      handler_name    : ?Mainconcept Video Media Handler
      encoder         : AVC Coding
    Stream #0:1(eng): Audio: aac (LC) (mp4a / 0x6134706D), 48000 Hz, stereo, fltp, 125 kb/s (default)
    Metadata:
      creation_time   : 2025-11-06T19:44:12.000000Z
      handler_name    : #Mainconcept MP4 Sound Media Handler
Input #1, png_pipe, from '/var/www/html/project/static/images/templates/logo.png':
  Duration: N/A, bitrate: N/A
    Stream #1:0: Video: png, 1 reference frame, rgba(pc), 1920x1080 [SAR 2835:2835 DAR 16:9], 25 tbr, 25 tbn, 25 tbc
[h264 @ 0x561abe260f80] Reinit context to 1280x720, pix_fmt: yuv420p
Input #2, mov,mp4,m4a,3gp,3g2,mj2, from '/var/www/html/project/static/images/templates/Codino.mp4':
  Metadata:
    major_brand     : mp42
    minor_version   : 1
    compatible_brands: isommp41mp42
    creation_time   : 2021-07-11T07:02:58.000000Z
  Duration: 00:00:02.00, start: 0.000000, bitrate: 1007 kb/s
    Stream #2:0(ita): Audio: aac (LC) (mp4a / 0x6134706D), 44100 Hz, stereo, fltp, 102 kb/s (default)
    Metadata:
      creation_time   : 2021-07-11T07:02:58.000000Z
      handler_name    : Core Media Audio
    Stream #2:1(und): Video: h264 (High), 1 reference frame (avc1 / 0x31637661), yuv420p(tv, bt709, progressive, left), 1280x720 [SAR 1:1 DAR 16:9], 813 kb/s, 25 fps, 25 tbr, 25k tbn, 50k tbc (default)
    Metadata:
      creation_time   : 2021-07-11T07:02:58.000000Z
      handler_name    : Core Media Video
[Parsed_scale_0 @ 0x561abe33dfc0] w:1280 h:720 flags:'bilinear' interl:0
[Parsed_scale_2 @ 0x561abe367840] w:1280 h:720 flags:'bilinear' interl:0
[Parsed_scale_4 @ 0x561abe263f80] w:1280 h:720 flags:'bilinear' interl:0
Stream mapping:
  Stream #0:0 (h264) -> scale
  Stream #0:1 (aac) -> concat:in0:a0
  Stream #1:0 (png) -> scale
  Stream #2:0 (aac) -> concat:in1:a0
  Stream #2:1 (h264) -> scale
  concat:out:v0 -> Stream #0:0 (libx264)
  concat:out:a0 -> Stream #0:1 (aac)
Press [q] to stop, [?] for help
[h264 @ 0x561abe365fc0] Reinit context to 1280x720, pix_fmt: yuv420p
[h264 @ 0x561abe706580] Reinit context to 1280x720, pix_fmt: yuv420p
[Parsed_scale_0 @ 0x561abf4f5b00] w:1280 h:720 flags:'bilinear' interl:0
[Parsed_scale_2 @ 0x561abf4fe6c0] w:1280 h:720 flags:'bilinear' interl:0
[Parsed_scale_4 @ 0x561abf4ff740] w:1280 h:720 flags:'bilinear' interl:0
[graph 0 input from stream 0:0 @ 0x561abf503f40] w:1280 h:720 pixfmt:yuv420p tb:1/30000 fr:30/1 sar:0/1 sws_param:flags=2
[graph 0 input from stream 1:0 @ 0x561abf504fc0] w:1920 h:1080 pixfmt:rgba tb:1/25 fr:25/1 sar:2835/2835 sws_param:flags=2
[graph 0 input from stream 2:1 @ 0x561abf506040] w:1280 h:720 pixfmt:yuv420p tb:1/25000 fr:25/1 sar:1/1 sws_param:flags=2
[graph_0_in_0_1 @ 0x561abf506fc0] tb:1/48000 samplefmt:fltp samplerate:48000 chlayout:0x3
[graph_0_in_2_0 @ 0x561abf508100] tb:1/44100 samplefmt:fltp samplerate:44100 chlayout:0x3
[Parsed_concat_7 @ 0x561abf501fc0] auto-inserting filter 'auto_resampler_0' between the filter 'graph_0_in_2_0' and the filter 'Parsed_concat_7'
[Parsed_scale_0 @ 0x561abf4f5b00] w:1280 h:720 fmt:yuv420p sar:0/1 -> w:1280 h:720 fmt:yuv420p sar:0/1 flags:0x2
[Parsed_setsar_1 @ 0x561abf4f5f80] w:1280 h:720 sar:0/1 dar:16/9 -> sar:1/1 dar:16/9
[Parsed_scale_2 @ 0x561abf4fe6c0] w:1920 h:1080 fmt:rgba sar:2835/2835 -> w:1280 h:720 fmt:yuva420p sar:1/1 flags:0x2
[Parsed_setsar_3 @ 0x561abf4febc0] w:1280 h:720 sar:1/1 dar:16/9 -> sar:1/1 dar:16/9
[Parsed_overlay_6 @ 0x561abf500e80] main w:1280 h:720 fmt:yuv420p overlay w:1280 h:720 fmt:yuva420p
[Parsed_overlay_6 @ 0x561abf500e80] [framesync @ 0x561abf500fe8] Selected 1/30000 time base
[Parsed_overlay_6 @ 0x561abf500e80] [framesync @ 0x561abf500fe8] Sync level 2
[Parsed_scale_4 @ 0x561abf4ff740] w:1280 h:720 fmt:yuv420p sar:1/1 -> w:1280 h:720 fmt:yuv420p sar:1/1 flags:0x2
[Parsed_setsar_5 @ 0x561abf500280] w:1280 h:720 sar:1/1 dar:16/9 -> sar:1/1 dar:16/9
[auto_resampler_0 @ 0x561abf50f480] ch:2 chl:stereo fmt:fltp r:44100Hz -> ch:2 chl:stereo fmt:fltp r:48000Hz
[libx264 @ 0x561abe3388c0] using SAR=1/1
[libx264 @ 0x561abe3388c0] using cpu capabilities: MMX2 SSE2Fast SSSE3 SSE4.2 AVX FMA3 BMI2 AVX2
[libx264 @ 0x561abe3388c0] profile High, level 3.1
[libx264 @ 0x561abe3388c0] 264 - core 155 r2917 0a84d98 - H.264/MPEG-4 AVC codec - Copyleft 2003-2018 - http://www.videolan.org/x264.html - options: cabac=1 ref=1 deblock=1:0:0 analyse=0x3:0x113 me=hex subme=2 psy=1 psy_rd=1.00:0.00 mixed_ref=0 me_range=16 chroma_me=1 trellis=0 8x8dct=1 cqm=0 deadzone=21,11 fast_pskip=1 chroma_qp_offset=0 threads=22 lookahead_threads=5 sliced_threads=0 nr=0 decimate=1 interlaced=0 bluray_compat=0 constrained_intra=0 bframes=3 b_pyramid=2 b_adapt=1 b_bias=0 direct=1 weightb=1 open_gop=0 weightp=1 keyint=250 keyint_min=25 scenecut=40 intra_refresh=0 rc_lookahead=10 rc=crf mbtree=1 crf=18.0 qcomp=0.60 qpmin=0 qpmax=69 qpstep=4 ip_ratio=1.40 aq=1:1.00
Output #0, mp4, to '/var/www/html/project/media/video/watermarks/1000122258.mp4':
  Metadata:
    major_brand     : mp42
    minor_version   : 0
    compatible_brands: mp42mp41
    encoder         : Lavf58.29.100
    Stream #0:0: Video: h264 (libx264), 1 reference frame (avc1 / 0x31637661), yuv420p(progressive), 1280x720 [SAR 1:1 DAR 16:9], q=-1--1, 30 fps, 15360 tbn, 30 tbc (default)
    Metadata:
      encoder         : Lavc58.54.100 libx264
    Side data:
      cpb: bitrate max/min/avg: 0/0/0 buffer size: 0 vbv_delay: -1
    Stream #0:1: Audio: aac (LC) (mp4a / 0x6134706D), 48000 Hz, stereo, fltp, delay 1024, 128 kb/s (default)
    Metadata:
      encoder         : Lavc58.54.100 aac
[Parsed_overlay_6 @ 0x561abf500e80] [framesync @ 0x561abf500fe8] Sync level 0
[Parsed_concat_7 @ 0x561abf501fc0] EOF on in0:v0, 1 streams left in segment.
[Parsed_concat_7 @ 0x561abf501fc0] EOF on in0:a0, 0 streams left in segment.
[Parsed_concat_7 @ 0x561abf501fc0] Segment finished at pts=117909333
[Parsed_concat_7 @ 0x561abf501fc0] EOF on in1:v0, 1 streams left in segment.
[Parsed_concat_7 @ 0x561abf501fc0] EOF on in1:a0, 0 streams left in segment.
[Parsed_concat_7 @ 0x561abf501fc0] Segment finished at pts=119928020
No more output streams to write to, finishing.
frame= 3587 fps=212 q=-1.0 Lsize=   70150kB time=00:01:59.93 bitrate=4791.5kbits/s speed=7.09x    
[AVIOContext @ 0x561abe227ec0] Statistics: 0 seeks, 34 writeouts
video:68145kB audio:1876kB subtitle:0kB other streams:0kB global headers:0kB muxing overhead: 0.185467%
Input file #0 (/var/www/html/project/media/video/original/1000122258.mp4):
  Input stream #0:0 (video): 3537 packets read (30152797 bytes); 3537 frames decoded; 
  Input stream #0:1 (audio): 5527 packets read (1847803 bytes); 5527 frames decoded (5659648 samples); 
  Total: 9064 packets (32000600 bytes) demuxed
Input file #1 (/var/www/html/project/static/images/templates/logo.png):
  Input stream #1:0 (video): 1 packets read (111578 bytes); 1 frames decoded; 
  Total: 1 packets (111578 bytes) demuxed
Input file #2 (/var/www/html/project/static/images/templates/Codino.mp4):
  Input stream #2:0 (audio): 89 packets read (26579 bytes); 87 frames decoded (89024 samples); 
  Input stream #2:1 (video): 50 packets read (203365 bytes); 50 frames decoded; 
  Total: 139 packets (229944 bytes) demuxed
Output file #0 (/var/www/html/project/media/video/watermarks/1000122258.mp4):
  Output stream #0:0 (video): 3587 frames encoded; 3587 packets muxed (69779982 bytes); 
  Output stream #0:1 (audio): 5622 frames encoded (5756545 samples); 5623 packets muxed (1920799 bytes); 
  Total: 9210 packets (71700781 bytes) muxed
[AVIOContext @ 0x561abe256a40] Statistics: 2 seeks, 277 writeouts
[libx264 @ 0x561abe3388c0] frame I:23    Avg QP:15.05  size:165325
[libx264 @ 0x561abe3388c0] frame P:984   Avg QP:19.60  size: 45345
[libx264 @ 0x561abe3388c0] frame B:2580  Avg QP:24.31  size:  8278
[libx264 @ 0x561abe3388c0] consecutive B-frames:  1.4%  6.7%  4.5% 87.4%
[libx264 @ 0x561abe3388c0] mb I  I16..4: 16.0%  9.3% 74.8%
[libx264 @ 0x561abe3388c0] mb P  I16..4:  3.4%  3.4%  3.5%  P16..4: 39.9% 16.0% 15.6%  0.0%  0.0%    skip:18.3%
[libx264 @ 0x561abe3388c0] mb B  I16..4:  0.4%  0.2%  0.1%  B16..8: 23.0%  8.2%  2.2%  direct: 8.8%  skip:57.1%  L0:34.0% L1:38.3% BI:27.6%
[libx264 @ 0x561abe3388c0] 8x8 transform intra:29.4% inter:22.3%
[libx264 @ 0x561abe3388c0] coded y,uvDC,uvAC intra: 58.9% 56.6% 28.8% inter: 19.5% 11.9% 1.3%
[libx264 @ 0x561abe3388c0] i16 v,h,dc,p: 28% 42% 20% 10%
[libx264 @ 0x561abe3388c0] i8 v,h,dc,ddl,ddr,vr,hd,vl,hu: 22% 40% 21%  2%  2%  3%  3%  3%  4%
[libx264 @ 0x561abe3388c0] i4 v,h,dc,ddl,ddr,vr,hd,vl,hu: 25% 21% 14%  6%  7%  7%  6%  6%  7%
[libx264 @ 0x561abe3388c0] i8c dc,h,v,p: 43% 29% 19%  8%
[libx264 @ 0x561abe3388c0] Weighted P-Frames: Y:16.9% UV:3.4%
[libx264 @ 0x561abe3388c0] kb/s:4655.83
[aac @ 0x561abe337c00] Qavg: 539.764
[AVIOContext @ 0x561abe230e40] Statistics: 32066507 bytes read, 1 seeks
[AVIOContext @ 0x561abe35afc0] Statistics: 111578 bytes read, 0 seeks
[AVIOContext @ 0x561abe230800] Statistics: 1530915 bytes read, 42 seeks
